<svg width="1674" height="1383" viewBox="0 0 1674 1383" fill="none" xmlns="http://www.w3.org/2000/svg">
<path d="M1492.74 442.427C1491.72 470.187 1491.46 629.368 1492.74 692.426C1493.2 724.744 1495.85 827.609 1495.39 847.273C1494.93 866.937 1494.46 877.116 1488.45 885.907C1482.43 894.698 1420.43 963.869 1413.49 969.652C1406.55 975.436 1387.35 988.622 1362.14 988.853C1336.92 989.085 1234.9 989.987 1226.39 987.975C1207.97 983.625 1205.98 965.951 1205.06 960.399C1204.13 954.846 1203.27 933.952 1202.51 919.683C1201.8 906.416 1190.13 903.907 1178.45 902.332C1167.83 900.899 1015.59 887.907 977.65 883.974C938.334 879.898 845.915 869.529 810.157 859.071C777.717 849.584 756.702 824.377 738.737 807.418C720.887 790.568 675.325 747.039 654.465 727.438C633.783 708.005 619.857 706.161 596.168 714.25C572.919 722.189 563.086 744.095 557.996 754.043C552.907 763.99 483.323 953.451 477.54 969.877C471.756 986.302 433.766 1087.4 428.677 1103.14C423.587 1118.87 399.528 1177.86 386.341 1200.76C375.34 1219.87 372.328 1223.9 360.2 1223.9C344.363 1223.9 336.094 1211.71 330.443 1204.23C324.72 1196.66 317.834 1187.4 308.669 1174.81C295.111 1156.2 301.598 1157.74 293.378 1145.56C288.89 1138.91 273.373 1131.68 252.324 1115.81C238.212 1105.17 234.362 1103.79 228.888 1087.39C224.888 1075.4 220.033 1045.96 212.433 1036.86C198.804 1020.55 182.405 1031.11 170.963 1020.55C165.304 1015.32 142.325 992.982 126.826 972.855C122.885 967.738 120.236 962.331 120.236 940.826C120.236 915.662 121.48 906.828 123.308 898.399C126.565 883.376 154.545 822.3 159.403 811.427C164.261 800.554 217.033 701.186 223.279 690.082C229.525 678.978 276.455 590.485 293.574 568.508C310.694 546.53 316.708 535.834 348.376 534.694C380.045 533.553 389.155 544.179 396.983 551.388C405.774 559.485 482.511 632.523 510.734 656.351C538.958 680.179 557.939 688.866 576.341 678.965C597.13 667.78 603.57 648.783 630.637 601.589C657.704 554.396 666.63 543.06 680.192 537.022C695.486 530.213 731.342 526.453 769.166 544.1C782.325 550.24 923.264 618.464 938.301 625.405C985.778 647.317 1002.86 646.469 1034.33 652.484C1065.79 658.499 1177.28 653.906 1223.75 651.919C1283.33 649.372 1300.68 622.083 1314.48 602.283C1318.23 596.898 1320.82 596.18 1324.42 558.26C1327.04 530.621 1328.82 506.274 1329.21 501.87C1330.25 490.049 1330.08 493.733 1316.95 449.683C1312.94 436.229 1307.27 421.959 1306.1 409.974C1304.36 392.02 1306.37 351.606 1306.85 341.331C1307.46 328.151 1314.24 311.299 1318.18 295.526C1325.14 267.641 1342.11 234.359 1351.67 222.928C1360.37 212.527 1376.24 216.926 1384.44 221.518C1395.25 227.573 1397.14 234.247 1410.91 254.392C1415.57 261.213 1421.9 266.957 1429.14 268.93C1437.49 271.208 1467.96 275.178 1476.98 278.912C1486.01 282.646 1486.99 289.254 1488.45 301.309C1489.53 310.278 1493.77 414.666 1492.74 442.427Z" stroke="black"/>
</svg>
